<svg xmlns="http://www.w3.org/2000/svg" viewBox="0 0 164.91 68.66"><defs><style>.cls-1,.cls-2{fill:#fff;}.cls-1{opacity:0.94;}.cls-2{stroke:#2fac66;}.cls-2,.cls-3{stroke-linejoin:round;stroke-width:1.42px;}.cls-3{fill:#2fac66;}.cls-3,.cls-4,.cls-5{stroke:#fff;}.cls-4,.cls-5{fill:none;stroke-linecap:round;stroke-miterlimit:10;}.cls-4{stroke-width:2.42px;}.cls-5{stroke-width:1.15px;}</style></defs><title>Andere bronnen</title><g id="Laag_2" data-name="Laag 2"><g id="Laag_1-2" data-name="Laag 1"><polygon class="cls-1" points="164.91 0 164.91 50.52 86.1 59.19 85.11 59.3 53.06 62.82 48.94 63.28 0 68.66 0 0 164.91 0"/><polygon class="cls-2" points="129.68 32.23 125.6 34.76 86.23 58.32 50.72 62.31 45.26 59.89 21.86 51.08 32.94 45.18 35.85 43.63 82.66 18.72 99.81 23.65 115.75 28.23 129.68 32.23"/><polygon class="cls-3" points="138.21 43.12 85.57 58.59 48.32 62.66 45.26 59.89 36 51.5 32.94 42.95 38.27 42.87 99.81 23.65 105.95 21.73 115.75 28.23 125.6 34.76 138.21 43.12"/><line class="cls-4" x1="98.36" y1="30.44" x2="115.51" y2="43.36"/><line class="cls-5" x1="89.78" y1="33.31" x2="106.94" y2="46.23"/><line class="cls-5" x1="84" y1="35.9" x2="101.16" y2="48.82"/><line class="cls-5" x1="78.88" y1="37.58" x2="96.03" y2="50.5"/></g></g></svg>