<svg xmlns="http://www.w3.org/2000/svg" viewBox="0 0 164.92 68.65"><defs><style>.cls-1,.cls-6{fill:#fff;}.cls-1{opacity:0.94;}.cls-2{fill:#2fac66;}.cls-3,.cls-4,.cls-5,.cls-7{fill:none;stroke-miterlimit:10;}.cls-3,.cls-7{stroke:#2fac66;}.cls-3{stroke-width:2.83px;}.cls-4,.cls-5{stroke:#fff;}.cls-4{stroke-width:1.07px;}.cls-5,.cls-7{stroke-width:1.42px;}</style></defs><title>IM-dashboard</title><g id="Laag_2" data-name="Laag 2"><g id="Laag_1-2" data-name="Laag 1"><polygon class="cls-1" points="164.92 0 164.92 50.52 126.7 54.72 38.22 64.45 0 68.65 0 0 164.92 0"/><polygon class="cls-2" points="126.7 29.79 126.7 54.72 38.22 64.45 38.22 29.79 126.7 29.79"/><line class="cls-3" x1="41.56" y1="25.69" x2="95.56" y2="25.69"/><line class="cls-4" x1="41.56" y1="39.44" x2="78.74" y2="39.44"/><line class="cls-4" x1="41.56" y1="44.69" x2="78.74" y2="44.69"/><line class="cls-5" x1="41.56" y1="49.95" x2="70.8" y2="49.95"/><polygon class="cls-6" points="108.42 56.73 105.59 57.05 105.59 44.81 108.42 44.81 108.42 56.73"/><polygon class="cls-6" points="103.27 57.31 100.44 57.6 100.44 48.38 103.27 48.38 103.27 57.31"/><polygon class="cls-6" points="113.58 56.18 110.74 56.47 110.74 48.63 113.58 48.63 113.58 56.18"/><polygon class="cls-6" points="118.73 55.63 115.89 55.89 115.89 40.47 118.73 40.47 118.73 55.63"/><polyline class="cls-7" points="128.9 54.94 128.9 19.71 36.02 19.71 36.02 65.08"/></g></g></svg>