<svg xmlns="http://www.w3.org/2000/svg" viewBox="0 0 164.91 68.66"><defs><style>.cls-1{fill:#fff;opacity:0.94;}.cls-2{fill:#2fac66;}</style></defs><title>Triple aim</title><g id="Laag_2" data-name="Laag 2"><g id="Laag_1-2" data-name="Laag 1"><polygon class="cls-1" points="164.91 0 164.91 50.52 115.72 55.93 115.72 28.4 96.82 28.4 96.82 58.01 93.13 58.42 93.13 18.87 74.23 18.87 74.23 60.49 70.79 60.87 70.79 40.52 51.89 40.52 51.89 62.95 0 68.66 0 0 164.91 0"/><polygon class="cls-2" points="115.72 28.4 115.72 55.93 96.82 58.01 96.82 28.4 115.72 28.4"/><polygon class="cls-2" points="93.13 18.87 93.13 58.42 74.23 60.49 74.23 18.87 93.13 18.87"/><polygon class="cls-2" points="70.79 40.52 70.79 60.87 51.89 62.95 51.89 40.52 70.79 40.52"/></g></g></svg>