<svg xmlns="http://www.w3.org/2000/svg" viewBox="0 0 164.92 68.65"><defs><style>.cls-1,.cls-6{fill:#fff;}.cls-1{opacity:0.94;}.cls-2{fill:#2fac66;}.cls-3,.cls-4,.cls-5,.cls-7,.cls-8{fill:none;stroke-miterlimit:10;}.cls-3,.cls-7,.cls-8{stroke:#2fac66;}.cls-3{stroke-width:2.83px;}.cls-4,.cls-5{stroke:#fff;}.cls-4{stroke-width:1.07px;}.cls-5{stroke-width:0.94px;}.cls-7{stroke-width:0.83px;}.cls-8{stroke-width:1.42px;}</style></defs><title>ZOJP</title><g id="Laag_2" data-name="Laag 2"><g id="Laag_1-2" data-name="Laag 1"><polygon class="cls-1" points="164.92 0 164.92 50.52 134.66 53.85 132.47 54.09 75.74 60.32 48.57 63.31 43.98 63.82 41.79 64.06 0 68.65 0 0 164.92 0"/><polygon class="cls-2" points="132.47 28.23 132.47 54.09 75.74 60.32 48.57 63.31 43.98 63.82 43.98 28.23 132.47 28.23"/><line class="cls-3" x1="47.28" y1="23.98" x2="101.28" y2="23.98"/><line class="cls-4" x1="80.85" y1="38.56" x2="118.02" y2="38.56"/><line class="cls-5" x1="89.43" y1="42.67" x2="118.02" y2="42.67"/><line class="cls-5" x1="89.43" y1="46.78" x2="118.02" y2="46.78"/><line class="cls-5" x1="89.43" y1="50.89" x2="118.02" y2="50.89"/><polygon class="cls-6" points="75.74 37.87 75.74 60.32 48.57 63.31 48.57 37.87 75.74 37.87"/><path class="cls-7" d="M63.21,61.09c.12-1.16-.06-1.09.06-2.25a8.78,8.78,0,0,0,2.85-.1,2.78,2.78,0,0,0,2-1.75c.35-1.22-.46-2.78.49-3.66.23-.23.56-.36.76-.62a1.44,1.44,0,0,0,0-1.57,16.07,16.07,0,0,1-.92-1.4,5.21,5.21,0,0,1-.11-2.69,5.65,5.65,0,0,0-.11-2.28c-1.11-3.62-4.82-3.73-8-2.91-1.48.39-3.82.9-4.83,2.1a8.64,8.64,0,0,0-1.54,5.67A10.09,10.09,0,0,0,54.58,52c.6,1.44,1.23,2.86,1.88,4.28.78,1.71-.54,3.59-.5,5.46"/><polyline class="cls-8" points="134.66 53.85 134.66 15.11 41.79 15.11 41.79 64.06"/></g></g></svg>