<svg xmlns="http://www.w3.org/2000/svg" viewBox="0 0 164.91 68.66"><defs><style>.cls-1{fill:#fff;opacity:0.94;}.cls-2{fill:#74be8c;}.cls-3{fill:#2fac66;}.cls-4{fill:#add6b6;}.cls-5{fill:#208047;}.cls-6{fill:#97cca6;}</style></defs><title>ROS wijkscan</title><g id="Laag_2" data-name="Laag 2"><g id="Laag_1-2" data-name="Laag 1"><polygon class="cls-1" points="164.91 0 164.91 50.52 84.89 59.32 63.8 61.64 63.48 61.68 61.47 61.9 0 68.66 0 0 164.91 0"/><path class="cls-2" d="M84.81,56c-.5.18-.19.93-.13,1.42l.21,1.91L63.8,61.64a.93.93,0,0,1-.33,0,4.06,4.06,0,0,1,0-1.93,5.28,5.28,0,0,0,0-2.59c-.43-1.82.65-3,2-4l0,0a1.66,1.66,0,0,1,1,.28,3.3,3.3,0,0,0,4.84-.88c.39-.56,0-.95-.21-1.4a5.11,5.11,0,0,1,1.58-2.75c1.66.76,3.44-.19,5.12.38.63,2.3,2.5,3.57,4.18,5,1.21,1,1.8,1,3.32.19C85.69,54.71,86.14,55.51,84.81,56Z"/><path class="cls-2" d="M78.68,15.93c2.77-1.34,5.68-2.42,8.17-4.31a11.14,11.14,0,0,1,1.31-.75c.84.09,1.54.75,2.44.59,1,.43,1.29-.16,1.47-1,.78-.57,1.21-1.84,2.55-1.29A20.76,20.76,0,0,1,96,11.85a8.12,8.12,0,0,0,3.17,3.37,1,1,0,0,1-.06,1.39c-.77.43-1.68.15-2.5.61a6.08,6.08,0,0,0-2.36,3.08c-1.67-.24-2.68,1-3.84,1.82-1.53,1-2.82,2.29-4.45,3.13-.62.32-1.24.95-2,.33a28,28,0,0,1-4.4-6.39c-.29-.65-1.06-.94-1.2-1.68C78.38,17,78.18,16.38,78.68,15.93Z"/><path class="cls-3" d="M103.64,43.74C98.14,47.53,91.82,49,85.4,50.22c-1.94,1-2.27,1-3.17-.66-.15-.56-.65-.9-.89-1.4-.62-2.36.09-3.66,2.74-5,3.3-1.15,6.34-2.85,9.53-4.24a16.82,16.82,0,0,1,4.93-1.42,1.93,1.93,0,0,1,.52.2c1.74.85,1.74.85.73,2.5-.05.08,0,.18.06.36,1.55-.2,3.24-1.57,4.69.27C105,42.6,104.86,43,103.64,43.74Z"/><path class="cls-2" d="M65.71,32a2.26,2.26,0,0,0,.56-2.31c-.38-1,.12-1.28,1-1.31.46,0,.93,0,1.4,0s.78-.19.69-.66c-.21-1.09-.13-2.34-.79-3.22-.77-1-.36-1.85.09-2.68.83-1.53,1.87-2.87,3.82-3A22.29,22.29,0,0,0,74.86,21c1.31,3,3.83,5.19,4.9,8.28,0,.41-.33.6-.6.83a5.73,5.73,0,0,1-3.22,1.25c-2.07.26-2.35.75-2.06,2.77a3.85,3.85,0,0,1-.3,3c-1.53-.38-3.27.74-4.63-.27A7.41,7.41,0,0,1,65.71,32Z"/><path class="cls-3" d="M65.71,32c.82,1.24,2.13,2.11,2.7,3.57a2.26,2.26,0,0,0,3,.72c1.15-.61,1.68-.31,2,.81.68-.19.86.34,1.06.78a8.57,8.57,0,0,0,1.09,2,1.74,1.74,0,0,1,0,2.51c-1.13.71-1.23.62-5.09,2.89s-3,.64-5-1.28c-.25-.27-.42-.65-.74-.82-2.52-1.33-2.91-3.38-2.09-5.88C62.65,34.91,64.19,33.43,65.71,32Z"/><path class="cls-2" d="M115.74,29.69,123.08,37c.47.46.44.75-.25.94-3.78,1-7.5,2.24-11.32,3.08-2-2.22-2.63-5-3.61-7.71,0-.77.71-.93,1.24-1.16l3.84-1.7C113.93,30.3,114.72,29.55,115.74,29.69Z"/><path class="cls-3" d="M108.13,33.38c.66.12.83.66,1,1.19.36,1.1.73,2.2,1.1,3.29a1.39,1.39,0,0,0,.94,1.08c1.19.35,1.28,1.07.33,2.06l-6.43,2c-1.22-.2-.72-1.38-1.16-2-1.4-.83-2.59,0-3.79.52-.53.24-.95.58-1.39-.13a1,1,0,0,1,.2-1.55c1.25-1.08,1.23-1.11-.38-1.63-.22-.71.34-.89.78-1.09a19.41,19.41,0,0,1,2.23-.74c1.48-.46,1.62-.92.73-2.15-.3-.41-.63-.8-1-1.18s-.67-.78-.4-1.36a1.22,1.22,0,0,1,2,.06,2.89,2.89,0,0,0,3.39.9A1.27,1.27,0,0,1,108.13,33.38Z"/><path class="cls-3" d="M66,54.14l-.28-.83a31.19,31.19,0,0,1-3.27.93c-.63.12-.88.65-1.09,1.16a2.76,2.76,0,0,1-2.46,2c-.8,0-1.28,1-2.16.74s-.86-1.13-1.21-1.74a13.59,13.59,0,0,0-1.47-2.63c-.44-.47-.23-.91.12-1.32,1.14.27.87-.77,1.2-1.27a3.09,3.09,0,0,1,1.84-.8c1.07-.18,1.29-.74.73-1.67-.34-.55-.8-1-.48-1.75a.43.43,0,0,1,.1-.09c2.51-1.07,3-.92,4.52,1.43.08.11.15.22.22.33.83.91,2,.87,3.09,1.27a2,2,0,0,1,.63.56c.43.62,1.52.73,1.36,1.8A8.53,8.53,0,0,1,66,54.14Z"/><path class="cls-3" d="M74.43,21.3a5.8,5.8,0,0,0-1.07-.57,1.31,1.31,0,0,1-.91-2c0-.65-.33-1.36.55-1.81a.7.7,0,0,0,.12-1.11c-1.26-1.25-1.78-3.13-3.49-4a.44.44,0,0,1-.11-.72,1.65,1.65,0,0,1,1.65-.51,17.66,17.66,0,0,1,7.51,5.34c-.17.48,1.28,1,0,1.45-.41,2-2,2.95-3.44,4A.62.62,0,0,1,74.43,21.3Z"/><path class="cls-4" d="M65.75,53.31a4.46,4.46,0,0,1-1.09,1.56,1.54,1.54,0,0,0-.52,1.77c1.22,1.81-.29,3.35-.34,5l-2.33.26h0A16.55,16.55,0,0,1,59,61.73c-1.51-.74-1.6-2.37-2.25-3.64.65-.79,1.13-1.57,2.5-1.55,1.22,0,1.58-1.36,1.8-2.48,0-.18-.2-.57.17-.5,1.25.26,2.32-.45,3.49-.56a1.22,1.22,0,0,1,.8.1A.86.86,0,0,1,65.75,53.31Z"/><path class="cls-5" d="M82.06,48l1.08.8c.19.2.12.41.06.64-.32,1.26-.28,1.35,1,1,.69-.18.83,0,.83.64,0,.36-.15.75.15,1.07l.26,1.69c-.08,1.86-.43,2-2.2,1.27-2-.84-3.4-2.45-5-3.83a2,2,0,0,1-.47-2.2,1.61,1.61,0,0,1,1.78-1.41c.57,0,1.09-.28,1.65-.24A5.85,5.85,0,0,1,82.06,48Z"/><path class="cls-5" d="M115.74,29.69a2.8,2.8,0,0,1-2.55,1.13c-.87-.31-1.13-1.18-1.67-1.79-1.73-2-3.27-4.16-5.2-6a23.58,23.58,0,0,0-1.85-1.6c-.21-.27-.27-.62-.5-.88a3,3,0,0,1-.39-.73.89.89,0,0,1,.41-1.08c.4-.24.69,0,1,.24,1,.81,1.83,1.68,2.71,2.57Z"/><path class="cls-5" d="M90.44,12a1.52,1.52,0,0,1-2.28-1.17c-1.11-1.14-.36-1.66.69-2.1.56-.23,1.09-.51,1.63-.77,2.61-1.26,2.61-1.26,4.67.73.37.6,0,.75-.5.77-1.07,0-1.31,1.19-2.2,1.43C91.92,11.55,91.6,12.54,90.44,12Z"/><path class="cls-5" d="M107.68,21.56c-.79-.62-1.56-1.26-2.37-1.85-.33-.23-.62-.92-1.09-.52s.24.79.26,1.23c-.07.8-.55,1-1.25.82a6.23,6.23,0,0,1-4.39-4.7,1.07,1.07,0,0,0,0-1.13c0-1.18.6-1.58,1.71-1.16Z"/><path class="cls-6" d="M100.57,14.25c-.71.17-1.13.78-1.71,1.16a2.5,2.5,0,0,1-2.21-1.26c-.79-1-1.22-2.28-2.22-3.17-.48-.43-.22-1,.22-1.48.27-.2.52-.39.5-.77A65.66,65.66,0,0,1,100.57,14.25Z"/><path class="cls-4" d="M58.7,46a1.93,1.93,0,0,0,1.43-2.25.94.94,0,0,1,.34-1,5.78,5.78,0,0,0,1.74-2c.14-.33.49-.36.81-.12a8,8,0,0,0,.57,1.84c.18.52-.15,1-.21,1.45a5,5,0,0,1-.52,2.24,12.7,12.7,0,0,1-1,1.29c-1,.09-1.47-1-2.48-1C59.12,46.43,58.73,46.53,58.7,46Z"/><path class="cls-4" d="M57.61,47.13A20.12,20.12,0,0,1,59,48.69a1.43,1.43,0,0,1-1.14,2.39,14.75,14.75,0,0,0-2.2.31c-.59-.12-.5-.47-.29-.86.15-1.28,1.13-2.11,1.71-3.15C57.2,47.21,57.3,46.94,57.61,47.13Z"/><path class="cls-5" d="M55.35,50.53c0,.31,0,.63.29.86.89,1.09-.17,1.53-.79,1.84s-.51-.46-.64-.83C54.8,51.91,54.63,51,55.35,50.53Z"/><path class="cls-4" d="M62.92,61.74l-1.45.16h0l-1,.11a4.84,4.84,0,0,1-1.4-.28Z"/><path class="cls-5" d="M81.18,47.75c-.84,1.18-2.45.45-3.41,1.36a7.54,7.54,0,0,0-2.76.34,1.73,1.73,0,0,1-2.28-1c-.73.18-.78-.46-1-.85s-.65-.75-.88-1.2c-.36-2-.32-2.07,1.05-2.7A15.07,15.07,0,0,1,75,41.89c.89-1.14,1.83-.42,2.76-.08a1,1,0,0,1,.35.22,3.2,3.2,0,0,0,1.42.81c1.75.41,1.95.74,2,2.49A8.5,8.5,0,0,1,81.18,47.75Z"/><path class="cls-5" d="M71.73,46.3a5,5,0,0,1,1,2.2c.76,1.35-.73,1.73-1.11,2.59a2.82,2.82,0,0,1-3.69,2.3,1.07,1.07,0,0,1-.74-1.18c-.36-.6-1.23-.69-1.44-1.43-.42-1.08.59-1.5,1-2.2.55-.56.34-1.28.42-1.94.46-1.47,1.89-1.62,3-2.14.42-.2.66.2.76.59A1.54,1.54,0,0,0,71.73,46.3Z"/><path class="cls-5" d="M67.19,52.21c1.7,1.06,2.9.75,4.43-1.12a11.7,11.7,0,0,1,.75,1c.48.8.54,1.46-.7,1.42a1.47,1.47,0,0,0-1.43.67c-.75,1.2-1.66,1.29-2.81.56a8.28,8.28,0,0,0-1.4-.59C66.13,53.33,65.68,52.18,67.19,52.21Z"/><path class="cls-3" d="M84.25,25.23c1.47-.31,2.52-1.35,3.71-2.14.74-.49,1.45-1,2.18-1.53a7.59,7.59,0,0,1,2.71,3.35.89.89,0,0,1-.07.93,2,2,0,0,0,0,2.76c.2.27.06.63.08.95A1.27,1.27,0,0,1,92,31c-3.62,1.49-5.42,4.56-7,7.86-.6,1.27-1.22,2.53-1.89,3.76-.35.66-.7,1.35-1.59,1.42-.28-.06-.48-.29-.74-.36-2.29-.66-2.29-.66-1.6-2.82.17-.53.27-1.08.45-1.61a6.11,6.11,0,0,1,1.49-2.48c.63-.71.48-1.23-.2-1.73s-1.41-1-1.82-1.86A2.41,2.41,0,0,1,79.2,30c.66-.69.14-1.68.8-2.3a14.77,14.77,0,0,1,2.57-2.09A1.64,1.64,0,0,1,84.25,25.23Z"/><path class="cls-5" d="M84.25,25.23,80.62,28a2.83,2.83,0,0,1-1.12,1.18s-.11,0-.13-.05c-1.66-2.59-3.94-4.81-4.94-7.82,1.63-1.07,2.71-2.72,4.22-3.92.48.33,1.12.4,1.37,1.07.8,2.2,2.43,3.89,3.68,5.82C83.89,24.58,84.07,24.91,84.25,25.23Z"/><path class="cls-5" d="M92.41,29.39a4.14,4.14,0,0,0-.51-1c-.76-.89-1.08-1.65.06-2.56.71-.56.09-1.2-.28-1.69a5.58,5.58,0,0,1-1.54-2.6c.69-.6,1.4-1.18,2.08-1.79.83-.73,1.45-.59,1.87.42.23,0,.54-.07.65.12.93,1.55,2.6,1.77,4.08,2.36,2,1,2.05,1.85.29,3.23a60.46,60.46,0,0,1-5,3.58C93.53,29.86,92.94,30.12,92.41,29.39Z"/><path class="cls-6" d="M98.29,23.28c-.32-.17-.65-.5-1-.5-1.81,0-2.48-1.32-3.23-2.59.13-.65-.52-1.41.13-2a11.28,11.28,0,0,1,3.54-2.33c.53-.18.84.23,1.08.64.23.15.58.25.67.46.75,1.79,2.32,2.74,3.82,3.76.58.65.39,1.22-.17,1.78-.35.35-.74.66-1.08,1C100.74,24.56,99.53,23.74,98.29,23.28Z"/><path class="cls-5" d="M90.44,12c.82-.1,1.28-.85,2-1.11C92.17,12.39,91.44,12.8,90.44,12Z"/><path class="cls-2" d="M98.29,23.28c1.15.21,2.33.8,3.34-.33.84,1.52,1.61,3,.43,4.74a6.2,6.2,0,0,0-1,4c.72.84,1.42,1.7,2.17,2.52a1.4,1.4,0,0,1-.62,2.5,28.4,28.4,0,0,0-4.07,1.41A15.94,15.94,0,0,0,92.87,40c-2.65,1.58-5.6,2.39-8.31,3.78-.68.25-1.32.6-2,.9-.35.15-.72.59-1.1.2a.93.93,0,0,1,0-1.13,13.92,13.92,0,0,0,2-3.46c.89-1.69,1.8-3.36,2.66-5.06A9.57,9.57,0,0,1,90.6,31c.71-.36,1.62-.59,1.81-1.58A1.51,1.51,0,0,0,93.69,29c1.74-1.25,3.49-2.48,5.2-3.76,1.19-.9,1.16-.93-.18-1.56A2.42,2.42,0,0,1,98.29,23.28Z"/><path class="cls-5" d="M80.09,39.27c-.36,1.5-.34,3.29-2.56,3.36v0a6.93,6.93,0,0,0-2.81-2.31l-1.35-3.29c-.14-1.38-.3-2.76-.4-4.15-.08-1.19.22-2,1.69-2.13s3-.1,4.27-1c.44.14.63.7.45.85-1.32,1.05.1,1.56.39,2.29s1.19,1,1.66,1.65a4.55,4.55,0,0,0,.71.74c.4.41,1,1.28,0,1.55C80.81,37.19,80.5,38.22,80.09,39.27Z"/><path class="cls-3" d="M101.08,31.71a1.1,1.1,0,0,1-.72-1.46,7.74,7.74,0,0,1,1.12-3,2.12,2.12,0,0,0,.13-2.58c-.41-.62-.15-1.16,0-1.73.58-.72,1.84-.91,1.7-2.19a1.13,1.13,0,0,0,1.15-.34L105,21a.74.74,0,0,0,.78.87c.54,0,.8.36,1.2.52,1.84,2.26,3.67,4.52,5.52,6.76a2.21,2.21,0,0,1,.66,1.63c-.91,1.05-2.28,1.19-3.42,1.78-.54.28-1.09.52-1.64.78-.84-.5-1.67-.08-2.45.12a2.6,2.6,0,0,1-2.81-1A2,2,0,0,0,101.08,31.71Z"/><path class="cls-5" d="M67.15,48.81a5.39,5.39,0,0,1-1.4,2l-.57-.28c-1.17-.58-2.67-.32-3.64-1.42h0a1.85,1.85,0,0,0-.09-.54c-.77-1.39-.65-2.36,1.17-2.57h0a2.18,2.18,0,0,1,1.66-.72C65.54,46.2,66.86,47.09,67.15,48.81Z"/><path class="cls-5" d="M67.15,48.81A11,11,0,0,1,64.36,46c-1.87-.18-2-.29-1.75-2.25l.59-1.08c1.2-.55,2,0,2.8.87.45.76.49,1.77,1.61,2.11.63.19-.09,1.07.38,1.5A2.64,2.64,0,0,1,67.15,48.81Z"/></g></g></svg>